<svg xmlns="http://www.w3.org/2000/svg" viewBox="0 0 1200 36" width="1200" height="36" role="img" aria-label="Divisor em fileira de peças coloridas" xmlns:c2pa="http://c2pa.org/manifest"><metadata><c2pa:manifest>AAAWgmp1bWIAAAAeanVtZGMycGEAEQAQgAAAqgA4m3EDYzJwYQAAABZcanVtYgAAAEdqdW1kYzJtYQARABCAAACqADibcQN1cm46YzJwYTpiMjc4MTc4Ny0yY2RkLTQwMDEtYjYyNC05NGQ5NWI0NWFhZjMAAAADl2p1bWIAAAApanVtZGMyYXMAEQAQgAAAqgA4m3EDYzJwYS5hc3NlcnRpb25zAAAAALxqdW1iAAAARGp1bWRjYm9yABEAEIAAAKoAOJtxE2MycGEuaW5ncmVkaWVudC52MwAAAAAYYzJzaO692TrR/lKGKiLBjF/gVssAAABwY2JvcqNpZGM6Zm9ybWF0bWltYWdlL3N2Zyt4bWxqaW5zdGFuY2VJRHgseG1wOmlpZDo5NDk5Y2Y0Yy0xNzA5LTRlOWQtYjQ5NC03OGFiYzkwZjM2MzlscmVsYXRpb25zaGlwaHBhcmVudE9mAAAB4mp1bWIAAABBanVtZGNib3IAEQAQgAAAqgA4m3ETYzJwYS5hY3Rpb25zLnYyAAAAABhjMnNofbKGP+E6qhDT/6GRSNrOcwAAAZljYm9yomdhY3Rpb25zgqJmYWN0aW9ua2MycGEub3BlbmVkanBhcmFtZXRlcnOha2luZ3JlZGllbnRzgaJjdXJseC1zZWxmI2p1bWJmPWMycGEuYXNzZXJ0aW9ucy9jMnBhLmluZ3JlZGllbnQudjNkaGFzaFggindY8U+ruQGjglpnAW7Wv8DIeffUEyeIiDZmrzUh64CkZmFjdGlvbngdY29tLmFudGhyb3BpYy5jbGF1ZGUucHJvdmlkZWRqcGFyYW1ldGVyc6F4H2NvbS5hbnRocm9waWMub3JpZ2luLWNvbmZpZGVuY2VndW5rbm93bmtkZXNjcmlwdGlvbnhmQ2xhdWRlIHByb3ZpZGVkIHRoaXMgZmlsZSBhdCB0aGUgcmVxdWVzdCBvZiBhIHVzZXIgYW5kIG1heSBoYXZlIGNyZWF0ZWQgb3IgbW9kaWZpZWQgdGhlIGZpbGUgY29udGVudHMubXNvZnR3YXJlQWdlbnShZG5hbWVmQ2xhdWRlcmFsbEFjdGlvbnNJbmNsdWRlZPUAAADIanVtYgAAAEBqdW1kY2JvcgARABCAAACqADibcRNjMnBhLmhhc2guZGF0YQAAAAAYYzJzaLGvoZuOn7k4wDPa8V220WwAAACAY2JvcqVjYWxnZnNoYTI1NmNwYWRNAAAAAAAAAAAAAAAAAGRoYXNoWCBRSxP+4qe8cv+UK7A9r7GqVBoMKqXKjIU2z7e/BKEMYGRuYW1lbmp1bWJmIG1hbmlmZXN0amV4Y2x1c2lvbnOBomVzdGFydBjVZmxlbmd0aBkeBAAAAj5qdW1iAAAAJ2p1bWRjMmNsABEAEIAAAKoAOJtxA2MycGEuY2xhaW0udjIAAAACD2Nib3KlY2FsZ2ZzaGEyNTZpc2lnbmF0dXJleE1zZWxmI2p1bWJmPS9jMnBhL3VybjpjMnBhOmIyNzgxNzg3LTJjZGQtNDAwMS1iNjI0LTk0ZDk1YjQ1YWFmMy9jMnBhLnNpZ25hdHVyZWppbnN0YW5jZUlEeCx4bXA6aWlkOjc2MTE5NzdmLTliMmUtNDliOS04NDdjLWUzMTUxOTU1Mjc2ZnJjcmVhdGVkX2Fzc2VydGlvbnODomN1cmx4LXNlbGYjanVtYmY9YzJwYS5hc3NlcnRpb25zL2MycGEuaW5ncmVkaWVudC52M2RoYXNoWCCKd1jxT6u5AaOCWmcBbta/wMh599QTJ4iINmavNSHrgKJjdXJseCpzZWxmI2p1bWJmPWMycGEuYXNzZXJ0aW9ucy9jMnBhLmFjdGlvbnMudjJkaGFzaFgg52ShhnhzX6V/Qsjc3SxVUfFxbk487EAMHuW7m4yjVE+iY3VybHgpc2VsZiNqdW1iZj1jMnBhLmFzc2VydGlvbnMvYzJwYS5oYXNoLmRhdGFkaGFzaFggNTDOP/o1lRzzdzQH9tm4lHRx1tZ05rQViCnPzhfrre50Y2xhaW1fZ2VuZXJhdG9yX2luZm+jZG5hbWVvQW50aHJvcGljIEZpbGVzZ3ZlcnNpb25lMS4wLjBrc3BlY1ZlcnNpb25lMi40LjAAABA4anVtYgAAAChqdW1kYzJjcwARABCAAACqADibcQNjMnBhLnNpZ25hdHVyZQAAABAIY2JvctKEWQISogEmGCFZAgowggIGMIIBjaADAgECAhRA5aAK7sI50L64g/oGQgU9Z1UTADAKBggqhkjOPQQDAzBJMRcwFQYDVQQKEw5BbnRocm9waWMsIFBCQzEuMCwGA1UEAxMlQW50aHJvcGljIENvbnRlbnQgQ3JlZGVudGlhbHMgUm9vdCBDQTAeFw0yNjA4MDcxODQzNTZaFw0yODA4MDYxOTQzNTZaMEQxFzAVBgNVBAoTDkFudGhyb3BpYywgUEJDMSkwJwYDVQQDEyBBbnRocm9waWMgQ2xhdWRlIENvbnRlbnQgU2lnbmluZzBZMBMGByqGSM49AgEGCCqGSM49AwEHA0IABJh6CmvLUBgFFNU0vUKlOVtE6djd17L5SuwX0LemFisBM3dkd/3cyjxFA3Qo5S46fX0/ihY0VZ7mfb9KF703t5OjWDBWMA4GA1UdDwEB/wQEAwIHgDAVBgNVHSUEDjAMBgorBgEEAYPoXgIBMAwGA1UdEwEB/wQCMAAwHwYDVR0jBBgwFoAUzlHiBIFOZFsj+OPEz5o+nMHXXMIwCgYIKoZIzj0EAwMDZwAwZAIwMXMdFJ4BetLLVY7ORuE9noqbbAZOZn/aArXyTwFAZfKrPzxF2vPoJNf1+UCdg1XGAjBwX1zd9WGqYkqmL5SFqw1QySjr1zJfpJM9+1rdDwSPLMOPOjKuiXjoU/pUUeG9RwmhY3BhZFkNngAAAAAAAAAAAAAAAAAAAAAAAAAAAAAAAAAAAAAAAAAAAAAAAAAAAAAAAAAAAAAAAAAAAAAAAAAAAAAAAAAAAAAAAAAAAAAAAAAAAAAAAAAAAAAAAAAAAAAAAAAAAAAAAAAAAAAAAAAAAAAAAAAAAAAAAAAAAAAAAAAAAAAAAAAAAAAAAAAAAAAAAAAAAAAAAAAAAAAAAAAAAAAAAAAAAAAAAAAAAAAAAAAAAAAAAAAAAAAAAAAAAAAAAAAAAAAAAAAAAAAAAAAAAAAAAAAAAAAAAAAAAAAAAAAAAAAAAAAAAAAAAAAAAAAAAAAAAAAAAAAAAAAAAAAAAAAAAAAAAAAAAAAAAAAAAAAAAAAAAAAAAAAAAAAAAAAAAAAAAAAAAAAAAAAAAAAAAAAAAAAAAAAAAAAAAAAAAAAAAAAAAAAAAAAAAAAAAAAAAAAAAAAAAAAAAAAAAAAAAAAAAAAAAAAAAAAAAAAAAAAAAAAAAAAAAAAAAAAAAAAAAAAAAAAAAAAAAAAAAAAAAAAAAAAAAAAAAAAAAAAAAAAAAAAAAAAAAAAAAAAAAAAAAAAAAAAAAAAAAAAAAAAAAAAAAAAAAAAAAAAAAAAAAAAAAAAAAAAAAAAAAAAAAAAAAAAAAAAAAAAAAAAAAAAAAAAAAAAAAAAAAAAAAAAAAAAAAAAAAAAAAAAAAAAAAAAAAAAAAAAAAAAAAAAAAAAAAAAAAAAAAAAAAAAAAAAAAAAAAAAAAAAAAAAAAAAAAAAAAAAAAAAAAAAAAAAAAAAAAAAAAAAAAAAAAAAAAAAAAAAAAAAAAAAAAAAAAAAAAAAAAAAAAAAAAAAAAAAAAAAAAAAAAAAAAAAAAAAAAAAAAAAAAAAAAAAAAAAAAAAAAAAAAAAAAAAAAAAAAAAAAAAAAAAAAAAAAAAAAAAAAAAAAAAAAAAAAAAAAAAAAAAAAAAAAAAAAAAAAAAAAAAAAAAAAAAAAAAAAAAAAAAAAAAAAAAAAAAAAAAAAAAAAAAAAAAAAAAAAAAAAAAAAAAAAAAAAAAAAAAAAAAAAAAAAAAAAAAAAAAAAAAAAAAAAAAAAAAAAAAAAAAAAAAAAAAAAAAAAAAAAAAAAAAAAAAAAAAAAAAAAAAAAAAAAAAAAAAAAAAAAAAAAAAAAAAAAAAAAAAAAAAAAAAAAAAAAAAAAAAAAAAAAAAAAAAAAAAAAAAAAAAAAAAAAAAAAAAAAAAAAAAAAAAAAAAAAAAAAAAAAAAAAAAAAAAAAAAAAAAAAAAAAAAAAAAAAAAAAAAAAAAAAAAAAAAAAAAAAAAAAAAAAAAAAAAAAAAAAAAAAAAAAAAAAAAAAAAAAAAAAAAAAAAAAAAAAAAAAAAAAAAAAAAAAAAAAAAAAAAAAAAAAAAAAAAAAAAAAAAAAAAAAAAAAAAAAAAAAAAAAAAAAAAAAAAAAAAAAAAAAAAAAAAAAAAAAAAAAAAAAAAAAAAAAAAAAAAAAAAAAAAAAAAAAAAAAAAAAAAAAAAAAAAAAAAAAAAAAAAAAAAAAAAAAAAAAAAAAAAAAAAAAAAAAAAAAAAAAAAAAAAAAAAAAAAAAAAAAAAAAAAAAAAAAAAAAAAAAAAAAAAAAAAAAAAAAAAAAAAAAAAAAAAAAAAAAAAAAAAAAAAAAAAAAAAAAAAAAAAAAAAAAAAAAAAAAAAAAAAAAAAAAAAAAAAAAAAAAAAAAAAAAAAAAAAAAAAAAAAAAAAAAAAAAAAAAAAAAAAAAAAAAAAAAAAAAAAAAAAAAAAAAAAAAAAAAAAAAAAAAAAAAAAAAAAAAAAAAAAAAAAAAAAAAAAAAAAAAAAAAAAAAAAAAAAAAAAAAAAAAAAAAAAAAAAAAAAAAAAAAAAAAAAAAAAAAAAAAAAAAAAAAAAAAAAAAAAAAAAAAAAAAAAAAAAAAAAAAAAAAAAAAAAAAAAAAAAAAAAAAAAAAAAAAAAAAAAAAAAAAAAAAAAAAAAAAAAAAAAAAAAAAAAAAAAAAAAAAAAAAAAAAAAAAAAAAAAAAAAAAAAAAAAAAAAAAAAAAAAAAAAAAAAAAAAAAAAAAAAAAAAAAAAAAAAAAAAAAAAAAAAAAAAAAAAAAAAAAAAAAAAAAAAAAAAAAAAAAAAAAAAAAAAAAAAAAAAAAAAAAAAAAAAAAAAAAAAAAAAAAAAAAAAAAAAAAAAAAAAAAAAAAAAAAAAAAAAAAAAAAAAAAAAAAAAAAAAAAAAAAAAAAAAAAAAAAAAAAAAAAAAAAAAAAAAAAAAAAAAAAAAAAAAAAAAAAAAAAAAAAAAAAAAAAAAAAAAAAAAAAAAAAAAAAAAAAAAAAAAAAAAAAAAAAAAAAAAAAAAAAAAAAAAAAAAAAAAAAAAAAAAAAAAAAAAAAAAAAAAAAAAAAAAAAAAAAAAAAAAAAAAAAAAAAAAAAAAAAAAAAAAAAAAAAAAAAAAAAAAAAAAAAAAAAAAAAAAAAAAAAAAAAAAAAAAAAAAAAAAAAAAAAAAAAAAAAAAAAAAAAAAAAAAAAAAAAAAAAAAAAAAAAAAAAAAAAAAAAAAAAAAAAAAAAAAAAAAAAAAAAAAAAAAAAAAAAAAAAAAAAAAAAAAAAAAAAAAAAAAAAAAAAAAAAAAAAAAAAAAAAAAAAAAAAAAAAAAAAAAAAAAAAAAAAAAAAAAAAAAAAAAAAAAAAAAAAAAAAAAAAAAAAAAAAAAAAAAAAAAAAAAAAAAAAAAAAAAAAAAAAAAAAAAAAAAAAAAAAAAAAAAAAAAAAAAAAAAAAAAAAAAAAAAAAAAAAAAAAAAAAAAAAAAAAAAAAAAAAAAAAAAAAAAAAAAAAAAAAAAAAAAAAAAAAAAAAAAAAAAAAAAAAAAAAAAAAAAAAAAAAAAAAAAAAAAAAAAAAAAAAAAAAAAAAAAAAAAAAAAAAAAAAAAAAAAAAAAAAAAAAAAAAAAAAAAAAAAAAAAAAAAAAAAAAAAAAAAAAAAAAAAAAAAAAAAAAAAAAAAAAAAAAAAAAAAAAAAAAAAAAAAAAAAAAAAAAAAAAAAAAAAAAAAAAAAAAAAAAAAAAAAAAAAAAAAAAAAAAAAAAAAAAAAAAAAAAAAAAAAAAAAAAAAAAAAAAAAAAAAAAAAAAAAAAAAAAAAAAAAAAAAAAAAAAAAAAAAAAAAAAAAAAAAAAAAAAAAAAAAAAAAAAAAAAAAAAAAAAAAAAAAAAAAAAAAAAAAAAAAAAAAAAAAAAAAAAAAAAAAAAAAAAAAAAAAAAAAAAAAAAAAAAAAAAAAAAAAAAAAAAAAAAAAAAAAAAAAAAAAAAAAAAAAAAAAAAAAAAAAAAAAAAAAAAAAAAAAAAAAAAAAAAAAAAAAAAAAAAAAAAAAAAAAAAAAAAAAAAAAAAAAAAAAAAAAAAAAAAAAAAAAAAAAAAAAAAAAAAAAAAAAAAAAAAAAAAAAAAAAAAAAAAAAAAAAAAAAAAAAAAAAAAAAAAAAAAAAAAAAAAAAAAAAAAAAAAAAAAAAAAAAAAAAAAAAAAAAAAAAAAAAAAAAAAAAAAAAAAAAAAAAAAAAAAAAAAAAAAAAAAAAAAAAAAAAAAAAAAAAAAAAAAAAAAAAAAAAAAAAAAAAAAAAAAAAAAAAAAAAAAAAAAAAAAAAAAAAAAAAAAAAAAAAAAAAAAAAAAAAAAAAAAAAAAAAAAAAAAAAAAAAAAAAAAAAAAAAAAAAAAAAAAAAAAAAAAAAAAAAAAAAAAAAAAAAAAAAAAAAAAAAAAAAAAAAAAAAAAAAAAAAAAAAAAAAAAAAAAAAAAAAAAAAAAAAAAAAAAAAAAAAAAAAAAAAAAAAAAAAAAAAAAAAAAAAAAAAAAAAAAAAAAAAAAAAAAAAAAAAAAAAAAAAAAAAAAAAAAAAAAAAAAAAAAAAAAAAAAAAAAAAAAAAAAAAAAAAAAAAAAAAAAAAAAAAAAAAAAAAAAAAAAAAAAAAAAAAAAAAAAAAAAAAAAAAAAAAAAAAAAAAAAAAAAAAAAAAAAAAAAAAAAAAAAAAAAAAAAAAAAAAAAAAAAAAAAAAAAAAAAAAAAAAAAAAAAAAAAAAAAAAAAAAAAAAAAAAAAAAAAAAAAAAAAAAAAAAAAAAAAAAAAAAAAAAAAAAAAAAAAAAAAAAAAAAAAAAAAAAAAAAAAAAAAAAAAAAAAAAAAAAAAAAAAAAAAAAAAAAAAAAAAAAAAAAAAAAAAAAAAAAAAAAAAAAAAAAAAAAAAAAAAAAAAAAAAAAAAAAAAAAAAAAAAAAAAAAAAAAAAAAAAAAAAAAAAAAAAAAAAAAAAAAAAAAAAAAAAAAAAAAAAAAAAAAAAAAAAAAAAAAAAAAAAAAAAAAAAAAAAAAAAAAAAAAAAAAAAAAAAAAAAAAAAAAAAAAAAAAAAAAAAAAAAAAAAAAAAAAAAAAAAAAAAAAAAAAAAAAAAAAAAAAAAAAAAAAAAAAAAAAAAAAAAAAAAAAAAAAAAAAAAAAAAAAAAAAAAAAAAAAAAAAAAAAAAAAAAAAAAAAAAAAAAAAAAAAAAAAAAAAAAAAAAAAAAAAAAAAAAAAAAAAAAAAAAAAAAAAAAAAAAAAAAAAAAAAAAAAAAAAAAAAAAAAAAAAAAAAAAAAAAAAAAAAAAAAAAAAAAAAAAAAAAAAAAAAAAAAAAAAAAAAAAAAAAAAAAAAAAAAAAPZYQLNknGlFVVWx53US6soIADhNhes/4adpT78Ia0IeTK901Ve08Vh4ItHF2pyvSh+Cbqugf4Ock2fvnpQB7IR3wdE=</c2pa:manifest></metadata>
<rect x="13.0" y="4" width="20" height="12" rx="2" fill="#D7322B"/><ellipse cx="23.0" cy="4" rx="10.0" ry="5" fill="#E85A4F"/><rect x="59.0" y="4" width="20" height="12" rx="2" fill="#D7322B"/><ellipse cx="69.0" cy="4" rx="10.0" ry="5" fill="#E85A4F"/><rect x="0" y="14" width="92" height="20" rx="4" fill="#D7322B"/><rect x="0" y="26" width="92" height="8" rx="4" fill="#A82420"/><rect x="0" y="22" width="92" height="6" fill="#D7322B"/><rect x="6" y="18" width="80" height="3" rx="1.5" fill="#E85A4F" opacity=".7"/><rect x="109.3" y="4" width="20" height="12" rx="2" fill="#F6C21A"/><ellipse cx="119.3" cy="4" rx="10.0" ry="5" fill="#FFD84D"/><rect x="156.0" y="4" width="20" height="12" rx="2" fill="#F6C21A"/><ellipse cx="166.0" cy="4" rx="10.0" ry="5" fill="#FFD84D"/><rect x="202.7" y="4" width="20" height="12" rx="2" fill="#F6C21A"/><ellipse cx="212.7" cy="4" rx="10.0" ry="5" fill="#FFD84D"/><rect x="96" y="14" width="140" height="20" rx="4" fill="#F6C21A"/><rect x="96" y="26" width="140" height="8" rx="4" fill="#C99A0B"/><rect x="96" y="22" width="140" height="6" fill="#F6C21A"/><rect x="102" y="18" width="128" height="3" rx="1.5" fill="#FFD84D" opacity=".7"/><rect x="253.0" y="4" width="20" height="12" rx="2" fill="#1F5FBF"/><ellipse cx="263.0" cy="4" rx="10.0" ry="5" fill="#3B7BDB"/><rect x="299.0" y="4" width="20" height="12" rx="2" fill="#1F5FBF"/><ellipse cx="309.0" cy="4" rx="10.0" ry="5" fill="#3B7BDB"/><rect x="240" y="14" width="92" height="20" rx="4" fill="#1F5FBF"/><rect x="240" y="26" width="92" height="8" rx="4" fill="#174A96"/><rect x="240" y="22" width="92" height="6" fill="#1F5FBF"/><rect x="246" y="18" width="80" height="3" rx="1.5" fill="#3B7BDB" opacity=".7"/><rect x="349.5" y="4" width="20" height="12" rx="2" fill="#2F9E44"/><ellipse cx="359.5" cy="4" rx="10.0" ry="5" fill="#4CBB61"/><rect x="396.5" y="4" width="20" height="12" rx="2" fill="#2F9E44"/><ellipse cx="406.5" cy="4" rx="10.0" ry="5" fill="#4CBB61"/><rect x="443.5" y="4" width="20" height="12" rx="2" fill="#2F9E44"/><ellipse cx="453.5" cy="4" rx="10.0" ry="5" fill="#4CBB61"/><rect x="490.5" y="4" width="20" height="12" rx="2" fill="#2F9E44"/><ellipse cx="500.5" cy="4" rx="10.0" ry="5" fill="#4CBB61"/><rect x="336" y="14" width="188" height="20" rx="4" fill="#2F9E44"/><rect x="336" y="26" width="188" height="8" rx="4" fill="#237A34"/><rect x="336" y="22" width="188" height="6" fill="#2F9E44"/><rect x="342" y="18" width="176" height="3" rx="1.5" fill="#4CBB61" opacity=".7"/><rect x="541.3" y="4" width="20" height="12" rx="2" fill="#D7322B"/><ellipse cx="551.3" cy="4" rx="10.0" ry="5" fill="#E85A4F"/><rect x="588.0" y="4" width="20" height="12" rx="2" fill="#D7322B"/><ellipse cx="598.0" cy="4" rx="10.0" ry="5" fill="#E85A4F"/><rect x="634.7" y="4" width="20" height="12" rx="2" fill="#D7322B"/><ellipse cx="644.7" cy="4" rx="10.0" ry="5" fill="#E85A4F"/><rect x="528" y="14" width="140" height="20" rx="4" fill="#D7322B"/><rect x="528" y="26" width="140" height="8" rx="4" fill="#A82420"/><rect x="528" y="22" width="140" height="6" fill="#D7322B"/><rect x="534" y="18" width="128" height="3" rx="1.5" fill="#E85A4F" opacity=".7"/><rect x="685.0" y="4" width="20" height="12" rx="2" fill="#F6C21A"/><ellipse cx="695.0" cy="4" rx="10.0" ry="5" fill="#FFD84D"/><rect x="731.0" y="4" width="20" height="12" rx="2" fill="#F6C21A"/><ellipse cx="741.0" cy="4" rx="10.0" ry="5" fill="#FFD84D"/><rect x="672" y="14" width="92" height="20" rx="4" fill="#F6C21A"/><rect x="672" y="26" width="92" height="8" rx="4" fill="#C99A0B"/><rect x="672" y="22" width="92" height="6" fill="#F6C21A"/><rect x="678" y="18" width="80" height="3" rx="1.5" fill="#FFD84D" opacity=".7"/><rect x="781.3" y="4" width="20" height="12" rx="2" fill="#1F5FBF"/><ellipse cx="791.3" cy="4" rx="10.0" ry="5" fill="#3B7BDB"/><rect x="828.0" y="4" width="20" height="12" rx="2" fill="#1F5FBF"/><ellipse cx="838.0" cy="4" rx="10.0" ry="5" fill="#3B7BDB"/><rect x="874.7" y="4" width="20" height="12" rx="2" fill="#1F5FBF"/><ellipse cx="884.7" cy="4" rx="10.0" ry="5" fill="#3B7BDB"/><rect x="768" y="14" width="140" height="20" rx="4" fill="#1F5FBF"/><rect x="768" y="26" width="140" height="8" rx="4" fill="#174A96"/><rect x="768" y="22" width="140" height="6" fill="#1F5FBF"/><rect x="774" y="18" width="128" height="3" rx="1.5" fill="#3B7BDB" opacity=".7"/><rect x="925.0" y="4" width="20" height="12" rx="2" fill="#2F9E44"/><ellipse cx="935.0" cy="4" rx="10.0" ry="5" fill="#4CBB61"/><rect x="971.0" y="4" width="20" height="12" rx="2" fill="#2F9E44"/><ellipse cx="981.0" cy="4" rx="10.0" ry="5" fill="#4CBB61"/><rect x="912" y="14" width="92" height="20" rx="4" fill="#2F9E44"/><rect x="912" y="26" width="92" height="8" rx="4" fill="#237A34"/><rect x="912" y="22" width="92" height="6" fill="#2F9E44"/><rect x="918" y="18" width="80" height="3" rx="1.5" fill="#4CBB61" opacity=".7"/><rect x="1021.3" y="4" width="20" height="12" rx="2" fill="#D7322B"/><ellipse cx="1031.3" cy="4" rx="10.0" ry="5" fill="#E85A4F"/><rect x="1068.0" y="4" width="20" height="12" rx="2" fill="#D7322B"/><ellipse cx="1078.0" cy="4" rx="10.0" ry="5" fill="#E85A4F"/><rect x="1114.7" y="4" width="20" height="12" rx="2" fill="#D7322B"/><ellipse cx="1124.7" cy="4" rx="10.0" ry="5" fill="#E85A4F"/><rect x="1008" y="14" width="140" height="20" rx="4" fill="#D7322B"/><rect x="1008" y="26" width="140" height="8" rx="4" fill="#A82420"/><rect x="1008" y="22" width="140" height="6" fill="#D7322B"/><rect x="1014" y="18" width="128" height="3" rx="1.5" fill="#E85A4F" opacity=".7"/><rect x="1166.0" y="4" width="20" height="12" rx="2" fill="#F6C21A"/><ellipse cx="1176.0" cy="4" rx="10.0" ry="5" fill="#FFD84D"/><rect x="1152" y="14" width="48" height="20" rx="4" fill="#F6C21A"/><rect x="1152" y="26" width="48" height="8" rx="4" fill="#C99A0B"/><rect x="1152" y="22" width="48" height="6" fill="#F6C21A"/><rect x="1158" y="18" width="36" height="3" rx="1.5" fill="#FFD84D" opacity=".7"/>
</svg>
